<svg xmlns="http://www.w3.org/2000/svg" viewBox="-38.2 -156.7 1032.5 1032.5" fill="currentColor">
<g transform="translate(0.000000,719.000000) scale(0.100000,-0.100000)"
fill="currentColor" stroke="none">
<path d="M3400 7184 c-323 -27 -594 -101 -875 -239 -381 -187 -702 -467 -954
-835 -319 -464 -498 -1008 -572 -1734 -11 -110 -21 -201 -22 -202 -1 -1 -52 5
-113 12 -335 41 -651 70 -681 62 -33 -9 -63 -49 -63 -83 0 -30 29 -72 57 -83
15 -6 163 -25 328 -42 347 -36 1034 -120 1244 -153 132 -20 146 -24 164 -49
24 -33 17 -74 -17 -89 -20 -10 -413 32 -894 95 l-32 5 -2 -122 c-1 -67 -3
-140 -3 -162 l-2 -40 -99 -18 c-131 -24 -619 -124 -666 -137 -92 -26 -107
-140 -24 -175 29 -12 48 -10 192 21 416 89 1328 264 1470 280 45 6 54 4 72
-17 25 -26 28 -57 9 -83 -14 -19 -46 -27 -212 -57 -150 -27 -739 -141 -743
-144 -2 -2 -9 -47 -17 -101 -28 -199 -77 -292 -260 -499 -54 -60 -126 -146
-162 -190 -303 -378 -475 -783 -513 -1215 -10 -116 -4 -296 11 -337 l9 -23
365 0 c339 0 366 -1 372 -17 19 -58 83 -198 121 -267 133 -242 340 -437 468
-439 89 -1 132 60 169 243 14 68 25 126 25 129 0 3 23 -37 51 -89 116 -217
240 -351 352 -381 44 -12 90 0 132 33 51 40 113 198 152 390 10 49 20 88 23
88 3 0 14 -24 24 -52 33 -93 103 -231 155 -305 147 -208 301 -156 450 152 64
132 97 223 136 380 l32 130 835 3 836 2 11 45 c12 49 30 81 214 383 l129 213
-13 67 c-17 89 -15 260 5 348 84 384 337 670 671 762 67 18 71 21 102 73 18
30 45 64 59 76 35 27 101 46 149 41 l37 -3 89 145 c49 80 89 148 89 151 0 4
-15 9 -32 12 -18 3 -132 26 -253 51 -230 47 -612 118 -850 157 -114 19 -144
28 -163 47 -39 38 -11 102 45 102 75 0 675 -109 1102 -201 101 -21 191 -39
201 -39 11 0 31 23 54 61 l37 62 -99 101 c-114 116 -201 224 -263 325 -24 39
-50 71 -57 71 -11 0 -556 -78 -881 -126 l-115 -17 -23 27 c-28 33 -29 46 -4
78 23 29 6 25 521 103 201 30 382 58 403 61 20 3 37 9 37 14 0 4 -20 54 -44
111 -57 133 -110 309 -138 457 -32 167 -32 466 0 632 12 63 28 137 36 163 14
46 13 52 -13 130 -107 315 -284 629 -493 872 -368 429 -846 697 -1393 780 -98
15 -396 27 -485 19z m-777 -1748 c112 -55 215 -209 253 -381 23 -104 23 -275
0 -370 -38 -157 -126 -285 -238 -346 -59 -32 -69 -34 -153 -34 -78 0 -98 4
-147 28 -111 55 -213 193 -256 351 -24 86 -23 307 1 396 47 171 161 323 277
369 78 30 186 25 263 -13z m2164 12 c44 -16 74 -38 123 -87 123 -124 174 -264
174 -476 0 -108 -3 -143 -23 -205 -52 -168 -146 -296 -258 -348 -48 -22 -72
-27 -138 -27 -71 0 -88 4 -147 33 -174 85 -279 312 -264 567 7 128 27 210 76
310 102 211 277 301 457 233z m-982 -966 c97 -34 207 -104 266 -170 23 -26 57
-78 75 -117 116 -244 12 -506 -251 -635 -111 -55 -189 -73 -315 -73 -184 0
-348 62 -466 178 -266 261 -151 674 226 811 146 52 324 54 465 6z m-1597
-2741 c201 -46 337 -116 458 -237 134 -133 184 -268 184 -499 0 -193 -42 -411
-116 -594 -64 -162 -106 -208 -147 -163 -45 50 -159 337 -238 600 -26 89 -51
152 -65 167 -52 56 -130 38 -157 -37 -9 -24 -30 -158 -47 -298 -52 -428 -84
-527 -147 -462 -126 126 -243 374 -332 701 -22 81 -48 117 -92 126 -38 9 -88
-19 -104 -58 -8 -19 -22 -151 -35 -317 -12 -157 -25 -298 -29 -315 -12 -51
-45 -45 -107 19 -104 107 -200 277 -251 443 -24 78 -27 104 -27 233 0 131 2
151 25 210 98 257 370 437 749 496 123 19 360 12 478 -15z"/>
<path d="M2503 5049 c-43 -12 -93 -64 -124 -125 -21 -43 -24 -63 -24 -159 0
-96 3 -116 24 -155 46 -88 101 -130 171 -130 91 0 164 71 196 187 43 159 -30
351 -145 383 -42 12 -55 11 -98 -1z"/>
<path d="M4545 5045 c-22 -7 -57 -32 -77 -55 -50 -56 -72 -125 -73 -230 0 -77
3 -92 33 -152 40 -82 86 -119 153 -126 63 -6 101 10 149 65 51 58 75 129 74
218 -1 88 -16 140 -57 201 -52 78 -126 107 -202 79z"/>
<path d="M7511 6759 c-436 -49 -820 -244 -1152 -585 -290 -299 -460 -639 -519
-1044 -16 -111 -14 -358 5 -484 112 -754 666 -1388 1377 -1575 217 -57 372
-73 594 -60 667 38 1245 427 1540 1034 247 510 264 1083 48 1595 -110 262
-294 516 -496 686 -269 225 -568 362 -918 419 -120 19 -369 27 -479 14z m482
-294 c121 -21 292 -78 412 -136 448 -216 770 -647 861 -1154 22 -121 25 -401
5 -515 -64 -376 -215 -675 -466 -925 -181 -181 -375 -301 -617 -379 -181 -59
-258 -70 -488 -70 -175 -1 -220 3 -306 22 -423 92 -774 332 -1015 690 -168
251 -263 533 -276 822 -12 265 37 490 162 754 134 283 443 595 734 740 156 78
363 143 526 165 96 13 361 6 468 -14z"/>
<path d="M7610 6020 c-36 -21 -256 -149 -490 -283 -234 -135 -433 -252 -442
-261 -17 -15 -18 -56 -18 -594 0 -539 1 -580 18 -594 9 -8 76 -48 147 -88 72
-40 275 -158 453 -262 396 -230 410 -238 431 -230 15 5 201 112 765 436 120
69 224 131 232 137 12 10 14 109 14 600 l0 588 -27 19 c-16 11 -122 73 -238
139 -115 66 -331 191 -478 277 -148 86 -276 156 -285 156 -10 -1 -46 -18 -82
-40z m480 -329 c173 -101 359 -208 413 -239 l97 -57 0 -513 0 -513 -57 -35
c-32 -19 -119 -70 -193 -113 -74 -43 -241 -139 -371 -214 -130 -75 -248 -141
-262 -148 -28 -13 6 -31 -527 279 -157 91 -310 179 -340 197 -50 28 -55 35
-62 76 -5 24 -6 175 -4 334 3 160 5 372 5 471 l1 182 173 100 c94 56 298 173
452 261 l280 160 40 -23 c22 -12 182 -105 355 -205z"/>
<path d="M7686 5768 c-31 -29 -40 -59 -24 -80 7 -8 159 -100 338 -203 179
-104 342 -199 362 -212 49 -30 72 -29 97 3 41 53 32 66 -96 142 -282 166 -640
372 -647 372 -3 0 -16 -10 -30 -22z"/>
<path d="M6898 5329 c-17 -9 -18 -41 -18 -450 l0 -439 26 -10 c32 -13 72 -3
84 20 6 11 10 185 10 439 l0 420 -22 15 c-26 18 -55 20 -80 5z"/>
<path d="M8095 4334 c-165 -96 -331 -191 -368 -211 -75 -42 -88 -63 -63 -111
30 -58 24 -59 266 80 85 50 242 139 348 200 203 116 218 130 191 180 -15 29
-28 38 -54 37 -11 0 -155 -79 -320 -175z"/>
<path d="M6387 3163 c-172 -276 -239 -385 -235 -387 14 -11 388 -246 405 -255
26 -13 16 -27 188 249 135 215 185 298 185 305 0 2 -47 27 -105 54 -58 28
-155 85 -216 126 -61 41 -112 75 -114 75 -1 0 -50 -75 -108 -167z"/>
<path d="M5982 2749 c-19 -6 -41 -23 -53 -42 -11 -18 -75 -122 -142 -231 -117
-190 -124 -200 -166 -216 -104 -40 -165 -128 -164 -235 0 -62 0 -62 -34 -74
-85 -31 -143 -131 -143 -246 0 -50 -3 -55 -49 -98 -66 -62 -81 -85 -81 -127 0
-20 -7 -46 -16 -58 -74 -106 -316 -523 -324 -558 -12 -52 1 -122 31 -171 33
-54 139 -142 214 -179 89 -43 161 -57 223 -43 89 19 110 42 236 253 64 107
119 201 122 209 3 9 -12 27 -44 50 -70 52 -196 187 -231 249 -51 89 -38 138
38 138 38 0 170 -42 257 -80 36 -17 76 -30 88 -30 41 0 70 53 48 87 -4 6 -48
38 -97 71 -221 146 -302 275 -200 318 67 28 198 13 372 -42 78 -25 84 -25 108
-10 25 16 34 58 17 82 -4 5 -56 36 -115 67 -263 139 -305 203 -171 264 170 77
431 65 625 -31 l66 -33 92 148 c96 155 105 183 76 239 -8 16 -42 45 -77 66
-35 21 -142 89 -238 152 -178 116 -208 129 -268 111z"/>
<path d="M6664 2509 c-25 -42 -30 -58 -23 -77 5 -13 9 -45 9 -71 0 -50 -16
-80 -148 -285 l-51 -79 39 -38 c107 -104 160 -237 160 -403 0 -331 -208 -624
-500 -701 -113 -30 -306 -13 -402 36 -22 11 -44 17 -48 12 -25 -29 -100 -168
-96 -178 2 -7 55 -38 118 -69 194 -95 367 -133 567 -123 137 7 240 31 356 86
104 49 163 88 244 165 452 431 407 1141 -107 1686 l-87 92 -31 -53z"/>
</g>
</svg>
